<?xml version="1.0" encoding="UTF-8" standalone="no"?>
<!-- Uploaded to: SVG Repo, www.svgrepo.com, Generator: SVG Repo Mixer Tools -->

<svg
   fill="#000000"
   height="200"
   width="200"
   version="1.1"
   id="Capa_1"
   viewBox="0 0 47.96275 47.96275"
   xml:space="preserve"
   sodipodi:docname="coolant.svg"
   inkscape:version="1.2.2 (732a01da63, 2022-12-09)"
   xmlns:inkscape="http://www.inkscape.org/namespaces/inkscape"
   xmlns:sodipodi="http://sodipodi.sourceforge.net/DTD/sodipodi-0.dtd"
   xmlns="http://www.w3.org/2000/svg"
   xmlns:svg="http://www.w3.org/2000/svg"><defs
   id="defs2332">
	
	
	
	
</defs><sodipodi:namedview
   id="namedview2330"
   pagecolor="#ffffff"
   bordercolor="#000000"
   borderopacity="0.25"
   inkscape:showpageshadow="2"
   inkscape:pageopacity="0.0"
   inkscape:pagecheckerboard="0"
   inkscape:deskcolor="#d1d1d1"
   showgrid="false"
   inkscape:zoom="1.0175"
   inkscape:cx="129.72973"
   inkscape:cy="243.24324"
   inkscape:window-width="1920"
   inkscape:window-height="1001"
   inkscape:window-x="-9"
   inkscape:window-y="-9"
   inkscape:window-maximized="1"
   inkscape:current-layer="Capa_1" />

<g
   id="g295"
   transform="matrix(0.18137273,0,0,0.24989855,7.5421059,-4.1073301)"><path
     d="m 188.103,147.322 c -3.583,-2.072 -8.173,-0.849 -10.247,2.739 -4.734,8.189 -13.54,13.275 -22.979,13.275 -9.442,0 -18.249,-5.087 -22.983,-13.275 -1.341,-2.318 -3.816,-3.746 -6.494,-3.746 -2.678,0 -5.153,1.429 -6.493,3.748 -4.73,8.188 -13.535,13.273 -22.976,13.273 -9.439,0 -18.246,-5.088 -22.985,-13.277 -1.341,-2.317 -3.818,-3.744 -6.495,-3.744 -2.678,0 -5.152,1.428 -6.493,3.746 -4.735,8.189 -13.54,13.275 -22.98,13.275 -9.442,0 -18.249,-5.087 -22.984,-13.275 -2.073,-3.587 -6.662,-4.809 -10.247,-2.739 -3.586,2.074 -4.812,6.661 -2.738,10.247 7.407,12.809 21.189,20.768 35.969,20.768 11.168,0 21.767,-4.545 29.476,-12.295 7.711,7.75 18.31,12.295 29.477,12.295 11.168,0 21.765,-4.543 29.471,-12.291 7.709,7.747 18.308,12.291 29.476,12.291 14.777,0 28.559,-7.958 35.966,-20.768 2.072,-3.586 0.845,-8.173 -2.741,-10.247 z"
     id="path2319"
     style="fill:#ff0000" /><path
     d="m 188.5742,104.72672 c -3.583,-2.072 -8.173,-0.849 -10.247,2.739 -4.734,8.189 -13.54,13.275 -22.979,13.275 -9.442,0 -18.249,-5.087 -22.983,-13.275 -1.341,-2.318 -3.816,-3.746 -6.494,-3.746 -2.678,0 -5.153,1.429 -6.493,3.748 -4.72999,8.188 -13.535,13.273 -22.976,13.273 -9.43899,0 -18.24599,-5.088 -22.98499,-13.277 -1.341,-2.317 -3.818,-3.744 -6.495,-3.744 -2.678,0 -5.152,1.428 -6.493,3.746 -4.735003,8.189 -13.540006,13.275 -22.980006,13.275 -9.442,0 -18.249,-5.087 -22.984,-13.275 -2.073,-3.587 -6.6619997,-4.809 -10.2469997,-2.739 -3.58600003,2.074 -4.81200003,6.661 -2.738,10.247 7.407,12.809 21.1889997,20.76801 35.9689997,20.76801 11.168,0 21.767003,-4.545 29.476006,-12.29501 7.711,7.75001 18.31,12.29501 29.47699,12.29501 11.168,0 21.76501,-4.543 29.471,-12.29101 7.709,7.74701 18.308,12.29101 29.476,12.29101 14.777,0 28.559,-7.95801 35.96601,-20.76801 2.072,-3.586 0.845,-8.173 -2.74101,-10.247 z"
     id="path2319-0"
     style="fill:#ff0000" /><path
     d="m 188.33852,58.060261 c -3.583,-2.072 -8.173,-0.849 -10.247,2.739 -4.734,8.189 -13.54,13.275 -22.979,13.275 -9.442,0 -18.249,-5.087 -22.983,-13.275 -1.341,-2.318 -3.816,-3.746 -6.494,-3.746 -2.678,0 -5.153,1.429 -6.493,3.748 -4.73,8.188 -13.535,13.273 -22.976002,13.273 -9.439,0 -18.246003,-5.088 -22.985003,-13.277 -1.341,-2.317 -3.818,-3.744 -6.495,-3.744 -2.678,0 -5.152,1.428 -6.493,3.746 -4.735,8.189 -13.54,13.275 -22.98,13.275 -9.442,0 -18.249,-5.087 -22.984,-13.275 -2.073,-3.587 -6.6619996,-4.809 -10.2469996,-2.739 -3.58600002,2.074 -4.81200002,6.661 -2.738,10.247 7.407,12.809 21.1889996,20.768 35.9689996,20.768 11.168,0 21.767,-4.545 29.476,-12.295 7.711,7.75 18.310003,12.295 29.477003,12.295 11.168002,0 21.765002,-4.543 29.471002,-12.291 7.709,7.747 18.308,12.291 29.476,12.291 14.777,0 28.559,-7.958 35.966,-20.768 2.072,-3.586 0.845,-8.173 -2.741,-10.247 z"
     id="path2319-3"
     style="fill:#ff0000" /></g></svg>
