<?xml version="1.0" encoding="UTF-8" standalone="no"?>
<!-- Generator: Adobe Illustrator 19.0.0, SVG Export Plug-In . SVG Version: 6.00 Build 0)  -->

<svg
   xmlns:dc="http://purl.org/dc/elements/1.1/"
   xmlns:cc="http://creativecommons.org/ns#"
   xmlns:rdf="http://www.w3.org/1999/02/22-rdf-syntax-ns#"
   xmlns:svg="http://www.w3.org/2000/svg"
   xmlns="http://www.w3.org/2000/svg"
   xmlns:sodipodi="http://sodipodi.sourceforge.net/DTD/sodipodi-0.dtd"
   xmlns:inkscape="http://www.inkscape.org/namespaces/inkscape"
   version="1.1"
   id="Capa_1"
   x="0px"
   y="0px"
   viewBox="0 0 512 512"
   style="enable-background:new 0 0 512 512;"
   xml:space="preserve"
   sodipodi:docname="engine_dashboard-bw.svg"
   inkscape:version="0.92.4 (5da689c313, 2019-01-14)"><metadata
   id="metadata61"><rdf:RDF><cc:Work
       rdf:about=""><dc:format>image/svg+xml</dc:format><dc:type
         rdf:resource="http://purl.org/dc/dcmitype/StillImage" /><dc:title></dc:title></cc:Work></rdf:RDF></metadata><defs
   id="defs59" /><sodipodi:namedview
   pagecolor="#ffffff"
   bordercolor="#666666"
   borderopacity="1"
   objecttolerance="10"
   gridtolerance="10"
   guidetolerance="10"
   inkscape:pageopacity="1"
   inkscape:pageshadow="2"
   inkscape:window-width="1366"
   inkscape:window-height="706"
   id="namedview57"
   showgrid="false"
   inkscape:zoom="0.4609375"
   inkscape:cx="-96.542373"
   inkscape:cy="256"
   inkscape:window-x="-8"
   inkscape:window-y="-8"
   inkscape:window-maximized="1"
   inkscape:current-layer="Capa_1" />
<g
   id="g6">
	<g
   id="g4">
		<path
   d="M284.069,73.93C282.21,72.07,279.63,71,277,71c-2.641,0-5.21,1.07-7.07,2.93C268.07,75.79,267,78.37,267,81    s1.069,5.21,2.93,7.07c1.861,1.86,4.44,2.93,7.07,2.93s5.21-1.07,7.069-2.93C285.93,86.21,287,83.63,287,81    S285.93,75.79,284.069,73.93z"
   id="path2" />
	</g>
</g>
<g
   id="g12">
	<g
   id="g10">
		<path
   d="M502,225.127c-5.522,0-10,4.477-10,10V295h-34v-85.013c0-2.652-1.054-5.196-2.929-7.071l-30.986-30.987    c-1.876-1.875-4.419-2.929-7.071-2.929H326v-30h55c18.748,0,34-15.252,34-34s-15.252-34-34-34h-56c-5.522,0-10,4.477-10,10    s4.478,10,10,10h56c7.72,0,14,6.28,14,14c0,7.72-6.28,14-14,14h-65h-80h-65c-7.72,0-14-6.28-14-14c0-7.72,6.28-14,14-14h60.5    c5.522,0,10-4.477,10-10s-4.478-10-10-10H171c-18.748,0-34,15.252-34,34s15.252,34,34,34h55v30h-45.333    c-2.652,0-5.195,1.054-7.071,2.929l-29.404,29.405H104c-5.522,0-10,4.477-10,10V255H74c-5.522,0-10,4.477-10,10v30H52v-71.467    c0-14.336-11.663-26-26-26s-26,11.664-26,26V387.66c0,14.336,11.663,26,26,26s26-11.664,26-26V315h12v30c0,5.523,4.478,10,10,10    h20v21.789c0,2.652,1.054,5.196,2.929,7.071l54.212,54.211c1.876,1.875,4.419,2.929,7.071,2.929H354.5    c2.652,0,5.195-1.054,7.071-2.929l18.571-18.571H448c5.522,0,10-4.477,10-10V315h34v60.127c0,5.523,4.478,10,10,10    c5.522,0,10-4.477,10-10v-140C512,229.604,507.522,225.127,502,225.127z M32,304.749c-0.002,0.084-0.002,0.418,0,0.503v82.408    c0,3.308-2.691,6-6,6s-6-2.691-6-6V223.533c0-3.309,2.691-6,6-6s6,2.691,6,6V304.749z M94,335H84v-60h10V335z M246,139h60v30h-60    V139z M438,399.5h-62c-2.652,0-5.195,1.054-7.071,2.929L350.357,421H162.354L114,372.646V221.333h34.333    c2.652,0,5.195-1.054,7.071-2.929L184.81,189h228.062L438,214.129V399.5z"
   id="path8" />
	</g>
</g>
<g
   id="g18">
	<g
   id="g16">
		<path
   d="M335.069,379.93C333.21,378.07,330.63,377,328,377s-5.21,1.07-7.07,2.93c-1.86,1.86-2.93,4.44-2.93,7.07    s1.069,5.21,2.93,7.07c1.861,1.86,4.44,2.93,7.07,2.93s5.21-1.07,7.069-2.93c1.86-1.86,2.931-4.44,2.931-7.07    S336.93,381.79,335.069,379.93z"
   id="path14" />
	</g>
</g>
<g
   id="g24">
	<g
   id="g22">
		<path
   d="M287.333,377h-92.392l-42.283-42.283c-3.906-3.905-10.236-3.905-14.143,0c-3.905,3.905-3.905,10.237,0,14.142    l45.212,45.211c1.876,1.875,4.419,2.929,7.071,2.929h96.534c5.522,0,10-4.477,10-10S292.855,377,287.333,377z"
   id="path20" />
	</g>
</g>
<g
   id="g26">
</g>
<g
   id="g28">
</g>
<g
   id="g30">
</g>
<g
   id="g32">
</g>
<g
   id="g34">
</g>
<g
   id="g36">
</g>
<g
   id="g38">
</g>
<g
   id="g40">
</g>
<g
   id="g42">
</g>
<g
   id="g44">
</g>
<g
   id="g46">
</g>
<g
   id="g48">
</g>
<g
   id="g50">
</g>
<g
   id="g52">
</g>
<g
   id="g54">
</g>
<path
   style="fill:none;stroke-width:2.16949153"
   d="m 138.70198,396.2222 -23.28503,-23.35746 v -75.35441 -75.3544 h 19.03735 19.03734 l 16.1626,-16.27118 16.16259,-16.27119 H 298.7526 411.68837 l 12.40665,12.53749 12.40667,12.53748 v 91.59811 91.59811 H 404.9142 373.32671 l -11.46958,10.84745 -11.4696,10.84746 h -94.20026 -94.20025 z m 156.34887,-0.94084 c 3.35602,-3.35603 3.35602,-13.13211 0,-16.48814 -1.86681,-1.86681 -16.08432,-2.60339 -50.25061,-2.60339 H 197.15302 L 173.79348,353.41017 C 150.1447,330.34844 144.906,327.48528 138.35157,334.03971 c -6.99708,6.99709 -4.00224,12.20222 22.04841,38.32092 l 25.45762,25.52412 h 53.29493 c 38.55895,0 54.01476,-0.71984 55.89832,-2.60339 z m 40.41452,-0.80582 c 4.35424,-4.35422 4.35424,-10.52228 0,-14.87651 -1.87505,-1.87506 -5.22227,-3.4092 -7.43825,-3.4092 -9.25582,0 -14.0177,11.70628 -7.43826,18.28571 1.87506,1.87507 5.22228,3.40921 7.43826,3.40921 2.21598,0 5.5632,-1.53414 7.43825,-3.40921 z"
   id="path72"
   inkscape:connector-curvature="0" /></svg>