<?xml version="1.0" encoding="UTF-8" standalone="no"?>
<!-- Generator: Adobe Illustrator 19.0.0, SVG Export Plug-In . SVG Version: 6.00 Build 0)  -->

<svg
   xmlns:dc="http://purl.org/dc/elements/1.1/"
   xmlns:cc="http://creativecommons.org/ns#"
   xmlns:rdf="http://www.w3.org/1999/02/22-rdf-syntax-ns#"
   xmlns:svg="http://www.w3.org/2000/svg"
   xmlns="http://www.w3.org/2000/svg"
   xmlns:sodipodi="http://sodipodi.sourceforge.net/DTD/sodipodi-0.dtd"
   xmlns:inkscape="http://www.inkscape.org/namespaces/inkscape"
   version="1.1"
   id="Capa_1"
   x="0px"
   y="0px"
   viewBox="0 0 598.21014 524.44745"
   xml:space="preserve"
   sodipodi:docname="engine-dashboard-bw-rollover.svg"
   inkscape:version="0.92.3 (2405546, 2018-03-11)"
   width="598.21014"
   height="524.44745"><metadata
   id="metadata61"><rdf:RDF><cc:Work
       rdf:about=""><dc:format>image/svg+xml</dc:format><dc:type
         rdf:resource="http://purl.org/dc/dcmitype/StillImage" /><dc:title></dc:title></cc:Work></rdf:RDF></metadata><defs
   id="defs59">
	
</defs><sodipodi:namedview
   pagecolor="#ffffff"
   bordercolor="#666666"
   borderopacity="1"
   objecttolerance="10"
   gridtolerance="10"
   guidetolerance="10"
   inkscape:pageopacity="1"
   inkscape:pageshadow="2"
   inkscape:window-width="1299"
   inkscape:window-height="713"
   id="namedview57"
   showgrid="false"
   inkscape:zoom="0.4609375"
   inkscape:cx="529.07117"
   inkscape:cy="204.93563"
   inkscape:window-x="67"
   inkscape:window-y="27"
   inkscape:window-maximized="1"
   inkscape:current-layer="Capa_1"
   fit-margin-top="0"
   fit-margin-left="0"
   fit-margin-right="0"
   fit-margin-bottom="0" />
<rect
   style="fill:#898989;fill-opacity:1;stroke:#0a0a0a;stroke-width:1.60000002;stroke-miterlimit:4;stroke-dasharray:none;stroke-opacity:1"
   id="rect841"
   width="596.61017"
   height="522.84747"
   x="0.80000001"
   y="0.80000001" /><g
   id="g6"
   transform="translate(31.172861,-3.7423791)"
   style="fill:#b4b4b4;fill-opacity:1">
	<g
   id="g4"
   style="fill:#b4b4b4;fill-opacity:1">
		<path
   d="M 284.069,73.93 C 282.21,72.07 279.63,71 277,71 c -2.641,0 -5.21,1.07 -7.07,2.93 -1.86,1.86 -2.93,4.44 -2.93,7.07 0,2.63 1.069,5.21 2.93,7.07 1.861,1.86 4.44,2.93 7.07,2.93 2.63,0 5.21,-1.07 7.069,-2.93 C 285.93,86.21 287,83.63 287,81 c 0,-2.63 -1.07,-5.21 -2.931,-7.07 z"
   id="path2"
   inkscape:connector-curvature="0"
   style="fill:#b4b4b4;fill-opacity:1" />
	</g>
</g>
<g
   id="g10"
   transform="translate(31.172861,-5.9118691)"
   style="fill:#b4b4b4;fill-opacity:1">
		<path
   inkscape:connector-curvature="0"
   id="path8"
   d="m 502,225.127 c -5.522,0 -10,4.477 -10,10 V 295 h -34 v -85.013 c 0,-2.652 -1.054,-5.196 -2.929,-7.071 L 424.085,171.929 C 422.209,170.054 419.666,169 417.014,169 H 326 v -30 h 55 c 18.748,0 34,-15.252 34,-34 0,-18.748 -15.252,-34 -34,-34 h -56 c -5.522,0 -10,4.477 -10,10 0,5.523 4.478,10 10,10 h 56 c 7.72,0 14,6.28 14,14 0,7.72 -6.28,14 -14,14 h -65 -80 -65 c -7.72,0 -14,-6.28 -14,-14 0,-7.72 6.28,-14 14,-14 h 60.5 c 5.522,0 10,-4.477 10,-10 0,-5.523 -4.478,-10 -10,-10 H 171 c -18.748,0 -34,15.252 -34,34 0,18.748 15.252,34 34,34 h 55 v 30 h -45.333 c -2.652,0 -5.195,1.054 -7.071,2.929 l -29.404,29.405 H 104 c -5.522,0 -10,4.477 -10,10 V 255 H 74 c -5.522,0 -10,4.477 -10,10 v 30 H 52 v -71.467 c 0,-14.336 -11.663,-26 -26,-26 -14.337,0 -26,11.664 -26,26 V 387.66 c 0,14.336 11.663,26 26,26 14.337,0 26,-11.664 26,-26 V 315 h 12 v 30 c 0,5.523 4.478,10 10,10 h 20 v 21.789 c 0,2.652 1.054,5.196 2.929,7.071 l 54.212,54.211 c 1.876,1.875 4.419,2.929 7.071,2.929 H 354.5 c 2.652,0 5.195,-1.054 7.071,-2.929 L 380.142,419.5 H 448 c 5.522,0 10,-4.477 10,-10 V 315 h 34 v 60.127 c 0,5.523 4.478,10 10,10 5.522,0 10,-4.477 10,-10 v -140 c 0,-5.523 -4.478,-10 -10,-10 z M 32,304.749 c -0.002,0.084 -0.002,0.418 0,0.503 v 82.408 c 0,3.308 -2.691,6 -6,6 -3.309,0 -6,-2.691 -6,-6 V 223.533 c 0,-3.309 2.691,-6 6,-6 3.309,0 6,2.691 6,6 z M 94,335 H 84 V 275 H 94 Z M 246,139 h 60 v 30 h -60 z m 192,260.5 h -62 c -2.652,0 -5.195,1.054 -7.071,2.929 L 350.357,421 H 162.354 L 114,372.646 V 221.333 h 34.333 c 2.652,0 5.195,-1.054 7.071,-2.929 L 184.81,189 H 412.872 L 438,214.129 Z"
   style="fill:#b4b4b4;fill-opacity:1" />
	</g>
<g
   id="g18"
   transform="translate(37.681341,-5.9118691)"
   style="fill:#b4b4b4;fill-opacity:1">
	<g
   id="g16"
   style="fill:#b4b4b4;fill-opacity:1">
		<path
   d="M 335.069,379.93 C 333.21,378.07 330.63,377 328,377 c -2.63,0 -5.21,1.07 -7.07,2.93 -1.86,1.86 -2.93,4.44 -2.93,7.07 0,2.63 1.069,5.21 2.93,7.07 1.861,1.86 4.44,2.93 7.07,2.93 2.63,0 5.21,-1.07 7.069,-2.93 1.86,-1.86 2.931,-4.44 2.931,-7.07 0,-2.63 -1.07,-5.21 -2.931,-7.07 z"
   id="path14"
   inkscape:connector-curvature="0"
   style="fill:#b4b4b4;fill-opacity:1" />
	</g>
</g>
<g
   id="g24"
   transform="translate(26.833881,-1.5728891)"
   style="fill:#b4b4b4;fill-opacity:1">
	<g
   id="g22"
   style="fill:#b4b4b4;fill-opacity:1">
		<path
   d="m 287.333,377 h -92.392 l -42.283,-42.283 c -3.906,-3.905 -10.236,-3.905 -14.143,0 -3.905,3.905 -3.905,10.237 0,14.142 l 45.212,45.211 c 1.876,1.875 4.419,2.929 7.071,2.929 h 96.534 c 5.522,0 10,-4.477 10,-10 0,-5.523 -4.477,-9.999 -9.999,-9.999 z"
   id="path20"
   inkscape:connector-curvature="0"
   style="fill:#b4b4b4;fill-opacity:1" />
	</g>
</g>
<g
   id="g26"
   transform="translate(968.3932,63.511861)">
</g>
<g
   id="g28"
   transform="translate(968.3932,63.511861)">
</g>
<g
   id="g30"
   transform="translate(968.3932,63.511861)">
</g>
<g
   id="g32"
   transform="translate(968.3932,63.511861)">
</g>
<g
   id="g34"
   transform="translate(968.3932,63.511861)">
</g>
<g
   id="g36"
   transform="translate(968.3932,63.511861)">
</g>
<g
   id="g38"
   transform="translate(968.3932,63.511861)">
</g>
<g
   id="g40"
   transform="translate(968.3932,63.511861)">
</g>
<g
   id="g42"
   transform="translate(968.3932,63.511861)">
</g>
<g
   id="g44"
   transform="translate(968.3932,63.511861)">
</g>
<g
   id="g46"
   transform="translate(968.3932,63.511861)">
</g>
<g
   id="g48"
   transform="translate(968.3932,63.511861)">
</g>
<g
   id="g50"
   transform="translate(968.3932,63.511861)">
</g>
<g
   id="g52"
   transform="translate(968.3932,63.511861)">
</g>
<g
   id="g54"
   transform="translate(968.3932,63.511861)">
</g>
<path
   style="fill:none;stroke-width:2.16949153"
   d="m 1107.0952,459.73406 -23.285,-23.35746 v -75.35441 -75.3544 h 19.0373 19.0373 l 16.1626,-16.27118 16.1626,-16.27119 h 112.9358 112.9358 l 12.4066,12.53749 12.4067,12.53748 v 91.59811 91.59811 h -31.5875 -31.5875 l -11.4696,10.84745 -11.4696,10.84746 h -94.2002 -94.2003 z m 156.3489,-0.94084 c 3.356,-3.35603 3.356,-13.13211 0,-16.48814 -1.8669,-1.86681 -16.0844,-2.60339 -50.2507,-2.60339 h -47.6472 l -23.3595,-22.77966 c -23.6488,-23.06173 -28.8875,-25.92489 -35.4419,-19.37046 -6.9971,6.99709 -4.0023,12.20222 22.0484,38.32092 l 25.4576,25.52412 h 53.2949 c 38.559,0 54.0148,-0.71984 55.8984,-2.60339 z m 40.4145,-0.80582 c 4.3542,-4.35422 4.3542,-10.52228 0,-14.87651 -1.8751,-1.87506 -5.2223,-3.4092 -7.4383,-3.4092 -9.2558,0 -14.0177,11.70628 -7.4382,18.28571 1.875,1.87507 5.2222,3.40921 7.4382,3.40921 2.216,0 5.5632,-1.53414 7.4383,-3.40921 z"
   id="path72"
   inkscape:connector-curvature="0" /></svg>