<?xml version="1.0" encoding="UTF-8" standalone="no"?>
<!-- Uploaded to: SVG Repo, www.svgrepo.com, Generator: SVG Repo Mixer Tools -->

<svg
   fill="#000000"
   height="200"
   width="200"
   version="1.1"
   id="Layer_1"
   viewBox="0 0 128 128"
   xml:space="preserve"
   xmlns="http://www.w3.org/2000/svg"
   xmlns:svg="http://www.w3.org/2000/svg"><defs
   id="defs2062" />
<g
   id="g2057"
   transform="matrix(0.25061425,0,0,0.26180105,-0.62899631,-11.354846)"
   style="fill:#ff0000">
	<g
   id="g2055"
   style="fill:#ff0000">
		<path
   d="m 501.637,233.85 h -26.371 c -7.172,-24.956 -23.903,-48.923 -50.277,-48.923 H 176.578 c -0.456,0 -0.907,0.019 -1.354,0.055 -21.617,0.743 -39.369,19.285 -47.875,47.144 H 99.108 c -3.601,0 -6.529,-2.929 -6.529,-6.529 v -29.763 c 0,-22.029 -17.922,-39.951 -39.951,-39.951 H 16.711 C 7.482,155.882 0,163.364 0,172.593 c 0,9.229 7.482,16.711 16.711,16.711 h 35.917 c 3.601,0 6.529,2.929 6.529,6.529 v 29.763 c 0,22.029 17.922,39.951 39.951,39.951 h 22.896 c -0.055,1.65 -0.089,3.311 -0.089,4.991 0,48.789 23.5,85.58 54.663,85.58 0.367,0 0.731,-0.011 1.112,-0.03 2.47,0 246.274,0.006 247.529,-0.011 0.1,10e-4 0.199,0.011 0.3,0.011 28.683,0 50.859,-31.18 54.208,-74.186 h 21.91 c 5.723,0 10.363,-10.757 10.363,-24.026 0,-13.268 -4.64,-24.026 -10.363,-24.026 z M 381.575,322.664 H 177.252 v 0.001 c -0.162,0 -0.323,0.002 -0.485,0.007 -0.141,0.003 -0.283,0.01 -0.429,0.017 -7.539,-0.411 -21.004,-20.135 -21.004,-52.152 0,-32.356 13.753,-52.159 21.242,-52.159 0.344,0 0.686,-0.01 1.025,-0.031 h 203.974 c -7.581,15.923 -10.723,34.662 -10.723,52.159 0,17.468 3.132,36.216 10.723,52.158 z m 44.008,-0.004 c -0.06,-0.002 -0.118,-0.012 -0.178,-0.013 -7.45,-0.186 -21.129,-20.122 -21.129,-52.14 0,-32.018 13.679,-51.955 21.129,-52.14 0.062,-10e-4 0.123,-0.011 0.185,-0.013 3.952,0.065 9.609,5.579 14.083,15.496 h -10.782 c -5.723,0 -10.363,10.757 -10.363,24.026 0,13.268 4.639,24.026 10.363,24.026 h 17.276 c -2.7,25.464 -14.01,40.66 -20.584,40.758 z"
   id="path2053"
   style="fill:#ff0000" />
	</g>
</g>
</svg>
