<?xml version="1.0" encoding="UTF-8" standalone="no"?>
<svg
   width="200"
   height="200"
   version="1.1"
   id="svg16"
   sodipodi:docname="oil-level.svg"
   inkscape:version="1.2.2 (732a01da63, 2022-12-09)"
   xmlns:inkscape="http://www.inkscape.org/namespaces/inkscape"
   xmlns:sodipodi="http://sodipodi.sourceforge.net/DTD/sodipodi-0.dtd"
   xmlns="http://www.w3.org/2000/svg"
   xmlns:svg="http://www.w3.org/2000/svg">
  <defs
     id="defs20" />
  <sodipodi:namedview
     id="namedview18"
     pagecolor="#ffffff"
     bordercolor="#000000"
     borderopacity="0.25"
     inkscape:showpageshadow="2"
     inkscape:pageopacity="0.0"
     inkscape:pagecheckerboard="0"
     inkscape:deskcolor="#d1d1d1"
     showgrid="false"
     inkscape:zoom="4.07"
     inkscape:cx="53.562654"
     inkscape:cy="100.12285"
     inkscape:window-width="1920"
     inkscape:window-height="1001"
     inkscape:window-x="-9"
     inkscape:window-y="-9"
     inkscape:window-maximized="1"
     inkscape:current-layer="svg16" />
  <path
     d="M 11.062757,42.159383 2.9138984,82.015312 42.463299,101.24998 v 42.40213 h 91.467251 l 43.60787,-68.989619 8.88373,-3.671078 4.76445,6.520176 5.90851,-9.408521 L 188.08416,56.026637 168.203,67.008282 117.39552,84.112445 109.09378,73.231583 H 85.833539 V 59.469487 H 97.584192 V 45.794907 H 63.647138 v 13.67458 H 75.39779 V 73.231583 H 52.897273 V 62.508252 Z M 18.176181,60.205726 42.463299,72.01605 V 86.665626 L 15.452451,73.52791 Z M 162.43997,78.314971 129.02679,129.97752 H 52.901135 V 86.905342 H 104.7741 l 9.64692,12.640917 z"
     id="path12"
     style="fill:#ff0000;stroke-width:1.1946" />
  <path
     d="m187.69 101.34c0.25907 2.5987 0.33343 5.3253 1.6038 7.6787 1.0182 1.9309 1.5768 4.2267 1.06 6.3859-0.50729 1.6344-1.8645 2.9226-3.3876 3.6356-1.207 0.46222-2.5574 0.39771-3.8147 0.21508-1.6372-0.43101-3.0079-1.677-3.798-3.1513-0.77169-1.6722-0.4754-3.6262 0.0322-5.331 0.58637-1.5982 1.5551-3.0653 1.815-4.7768 0.50649-2.3923 0.35025-4.8876 1.005-7.2505 0.29081-0.984 1.0024-2.0868 2.159-2.0582 0.60118-0.0108 1.5162-0.0935 2.1286 0.67862 0.84419 0.86479 1.0108 2.4669 1.1966 3.9738z"
     id="path14"
     style="fill:#ff0000" />
  <path
     d="m 139.10655,101.86053 c -1.60606,-1.16819 -3.66349,-0.47866 -4.59314,1.54425 -2.12199,4.61694 -6.06922,7.48441 -10.30019,7.48441 -4.2323,0 -8.17998,-2.86803 -10.30196,-7.48441 -0.6011,-1.30689 -1.7105,-2.11199 -2.91089,-2.11199 -1.2004,0 -2.30979,0.80567 -2.91045,2.11311 -2.12019,4.61638 -6.06697,7.48329 -10.298838,7.48329 -4.230957,0 -8.178638,-2.8686 -10.302857,-7.48554 -0.601098,-1.30632 -1.711398,-2.11086 -2.911342,-2.11086 -1.200396,0 -2.309347,0.8051 -2.910445,2.11199 -2.122428,4.61694 -6.069208,7.48441 -10.300623,7.48441 -4.23231,0 -8.179987,-2.86803 -10.302418,-7.48441 -0.929208,-2.02235 -2.986196,-2.71131 -4.593146,-1.54425 -1.607402,1.16932 -2.156946,3.75546 -1.22729,5.77724 3.320136,7.22168 9.497824,11.70895 16.122854,11.70895 5.005978,0 9.756909,-2.56246 13.212409,-6.93189 3.456404,4.36943 8.207338,6.93189 13.212858,6.93189 5.005988,0 9.756018,-2.56133 13.210178,-6.92963 3.45551,4.36773 8.20643,6.92963 13.21241,6.92963 6.6237,0 12.80138,-4.4867 16.12151,-11.70895 0.92877,-2.02178 0.37877,-4.60792 -1.22863,-5.77724 z"
     id="path2319"
     style="fill:#ff0000;stroke-width:0.502714" />
</svg>
