<?xml version="1.0" encoding="UTF-8" standalone="no"?>
<svg
   width="200"
   height="200"
   version="1.1"
   id="svg16"
   sodipodi:docname="preheat.svg"
   inkscape:version="1.2.2 (732a01da63, 2022-12-09)"
   xmlns:inkscape="http://www.inkscape.org/namespaces/inkscape"
   xmlns:sodipodi="http://sodipodi.sourceforge.net/DTD/sodipodi-0.dtd"
   xmlns="http://www.w3.org/2000/svg"
   xmlns:svg="http://www.w3.org/2000/svg">
  <defs
     id="defs20" />
  <sodipodi:namedview
     id="namedview18"
     pagecolor="#ffffff"
     bordercolor="#000000"
     borderopacity="0.25"
     inkscape:showpageshadow="2"
     inkscape:pageopacity="0.0"
     inkscape:pagecheckerboard="0"
     inkscape:deskcolor="#d1d1d1"
     showgrid="false"
     inkscape:zoom="4.07"
     inkscape:cx="70.515971"
     inkscape:cy="100.12285"
     inkscape:window-width="1920"
     inkscape:window-height="1001"
     inkscape:window-x="-9"
     inkscape:window-y="-9"
     inkscape:window-maximized="1"
     inkscape:current-layer="svg16" />
  <path
     d="m 16.352,69.441 c 8.8257,-13.254 27.451,-16.628 41.484,-10.294 20.598,8.4906 32.01,31.625 30.538,53.235 -0.93398,11.22 -2.5979,24.239 -12.032,31.689 -7.9367,6.1227 -20.11,2.3646 -24.467,-6.3381 -8.0833,-15.893 -7.9057,-35.541 -0.98215,-51.836 8.3021,-19.823 28.952,-34.113 50.707,-32.959 23.286,0.13353 43.925,17.9 50.043,39.924 4.1132,14.659 3.5592,31.215 -3.5187,44.871 -4.3574,8.7028 -16.531,12.461 -24.467,6.3381 -9.4342,-7.4496 -11.098,-20.469 -12.032,-31.689 -1.472,-21.609 9.9399,-44.744 30.538,-53.235 14.173,-6.2661 32.513,-3.0644 41.484,10.294"
     stroke="#000000"
     stroke-width="10"
     id="path12"
     style="fill:none;stroke:#ff0000;stroke-opacity:1" />
</svg>
