<?xml version="1.0" encoding="UTF-8" standalone="no"?>
<svg
   width="200"
   height="200"
   version="1.1"
   id="svg36"
   sodipodi:docname="rev-limit.svg"
   inkscape:version="1.2.2 (732a01da63, 2022-12-09)"
   xmlns:inkscape="http://www.inkscape.org/namespaces/inkscape"
   xmlns:sodipodi="http://sodipodi.sourceforge.net/DTD/sodipodi-0.dtd"
   xmlns="http://www.w3.org/2000/svg"
   xmlns:svg="http://www.w3.org/2000/svg">
  <defs
     id="defs40" />
  <sodipodi:namedview
     id="namedview38"
     pagecolor="#ffffff"
     bordercolor="#000000"
     borderopacity="0.25"
     inkscape:showpageshadow="2"
     inkscape:pageopacity="0.0"
     inkscape:pagecheckerboard="0"
     inkscape:deskcolor="#d1d1d1"
     showgrid="false"
     inkscape:zoom="4.07"
     inkscape:cx="74.324324"
     inkscape:cy="100.12285"
     inkscape:window-width="1920"
     inkscape:window-height="1001"
     inkscape:window-x="-9"
     inkscape:window-y="-9"
     inkscape:window-maximized="1"
     inkscape:current-layer="svg36" />
  <circle
     cx="111.39"
     cy="119.48"
     r="18"
     id="circle12"
     style="fill:#ff0000" />
  <path
     d="M 111.39,52.828 V 69.703"
     id="path14"
     style="fill:#ff0000;stroke:#ff0000;stroke-width:10;stroke-opacity:1" />
  <path
     d="m 64.259,72.349 47.127,47.127"
     id="path16"
     style="fill:#ff0000;stroke:#ff0000;stroke-width:10;stroke-opacity:1" />
  <path
     d="M 44.738,119.48 H 61.613"
     id="path18"
     style="fill:#ff0000;stroke:#ff0000;stroke-width:10;stroke-opacity:1" />
  <path
     d="M 64.259,166.6 76.192,154.667"
     id="path20"
     style="fill:#ff0000;stroke:#ff0000;stroke-width:10;stroke-opacity:1" />
  <path
     d="M 158.51,166.6 146.577,154.667"
     id="path22"
     style="fill:#ff0000;stroke:#ff0000;stroke-width:10;stroke-opacity:1" />
  <path
     d="m 178.03,119.48 -16.875,-1e-5"
     id="path24"
     style="fill:#ff0000;stroke:#ff0000;stroke-width:10;stroke-opacity:1" />
  <path
     d="M 158.51,72.349 146.577,84.282"
     id="path26"
     style="fill:#ff0000;stroke:#ff0000;stroke-width:10;stroke-opacity:1" />
  <path
     d="m 110.45,47.834 c -30.53,0.39235 -57.65,20.197 -67.182,49.43 -8.9917,27.575 -0.38728,57.594 21.123,76.281 l 7.0918,-7.0938 c -18.925,-16.054 -26.53,-42.097 -18.707,-66.088 8.4788,-26.003 33.016,-43.284 60.355,-42.51 27.339,0.77426 50.86,19.417 57.854,45.857 6.1485,23.246 -1.7917,47.567 -19.688,62.748 l 7.0879,7.0898 c 20.337,-17.674 29.329,-45.69 22.266,-72.395 -8.1159,-30.684 -35.51,-52.398 -67.236,-53.297 -0.99145,-0.02808 -1.98,-0.03609 -2.9648,-0.02344 z"
     id="path30"
     style="fill:#ff0000" />
  <path
     d="m 17.753,38.876 17.416,17.416 -9.4007,9.4006 31.835,2.7e-5 v -31.835 l -9.4006,9.4006 -17.416,-17.416 z"
     id="path32"
     style="fill:#ff0000" />
</svg>
