<?xml version="1.0" encoding="UTF-8" standalone="no"?>
<svg
   version="1.1"
   id="Layer_1"
   x="0px"
   y="0px"
   viewBox="0 0 200 200"
   xml:space="preserve"
   sodipodi:docname="stop.svg"
   width="200"
   height="200"
   inkscape:version="1.2.2 (732a01da63, 2022-12-09)"
   xmlns:inkscape="http://www.inkscape.org/namespaces/inkscape"
   xmlns:sodipodi="http://sodipodi.sourceforge.net/DTD/sodipodi-0.dtd"
   xmlns="http://www.w3.org/2000/svg"
   xmlns:svg="http://www.w3.org/2000/svg"><defs
     id="defs309" /><sodipodi:namedview
     id="namedview307"
     pagecolor="#ffffff"
     bordercolor="#000000"
     borderopacity="0.25"
     inkscape:showpageshadow="2"
     inkscape:pageopacity="0.0"
     inkscape:pagecheckerboard="0"
     inkscape:deskcolor="#d1d1d1"
     showgrid="false"
     inkscape:zoom="1.6514684"
     inkscape:cx="46.019651"
     inkscape:cy="68.121195"
     inkscape:window-width="1920"
     inkscape:window-height="1001"
     inkscape:window-x="-9"
     inkscape:window-y="-9"
     inkscape:window-maximized="1"
     inkscape:current-layer="Layer_1" /><style
     type="text/css"
     id="style300">.st0{fill:#D8453E;}</style><g
     id="g304"
     transform="matrix(1.453316,0,0,1.4187905,11.504913,12.110435)"><path
       class="st0"
       d="m 61.44,0 c 8.31,0 16.24,1.66 23.49,4.66 7.53,3.12 14.3,7.68 19.96,13.34 5.66,5.66 10.22,12.42 13.34,19.96 3,7.25 4.66,15.18 4.66,23.49 0,8.31 -1.66,16.24 -4.66,23.49 -3.12,7.53 -7.68,14.3 -13.34,19.96 -5.66,5.66 -12.42,10.22 -19.96,13.34 -7.25,3 -15.18,4.66 -23.49,4.66 -8.31,0 -16.24,-1.66 -23.49,-4.66 C 30.42,115.12 23.65,110.56 17.99,104.9 12.34,99.23 7.78,92.46 4.66,84.93 1.66,77.68 0,69.75 0,61.44 0,53.13 1.66,45.2 4.66,37.95 7.78,30.42 12.34,23.65 18,18 23.66,12.34 30.42,7.78 37.96,4.66 45.2,1.66 53.13,0 61.44,0 Z m -12.31,16.62 38.18,83.42 c 0.93,-0.63 1.84,-1.28 2.72,-1.97 1.46,-1.14 2.89,-2.41 4.26,-3.78 4.29,-4.29 7.75,-9.41 10.09,-15.08 2.26,-5.47 3.51,-11.47 3.51,-17.78 0,-6.31 -1.25,-12.31 -3.51,-17.78 C 102.03,37.98 98.58,32.86 94.29,28.57 90,24.28 84.88,20.82 79.21,18.48 73.74,16.22 67.74,14.97 61.43,14.97 c -2.54,0 -5.01,0.2 -7.38,0.58 -1.65,0.27 -3.3,0.63 -4.92,1.07 z M 73.75,106.26 35.57,22.83 c -0.93,0.63 -1.84,1.28 -2.72,1.97 -1.46,1.14 -2.89,2.41 -4.26,3.78 -4.29,4.29 -7.75,9.41 -10.09,15.08 -2.26,5.47 -3.51,11.47 -3.51,17.78 0,6.31 1.25,12.31 3.51,17.78 2.35,5.67 5.8,10.79 10.09,15.08 4.29,4.29 9.41,7.75 15.08,10.09 5.47,2.26 11.47,3.51 17.78,3.51 2.54,0 5.01,-0.2 7.38,-0.58 1.65,-0.26 3.3,-0.62 4.92,-1.06 z"
       id="path302" /></g></svg>
