<?xml version="1.0" encoding="UTF-8" standalone="no"?>
<!-- Uploaded to: SVG Repo, www.svgrepo.com, Generator: SVG Repo Mixer Tools -->

<svg
   fill="#000000"
   height="200"
   width="200"
   version="1.1"
   id="Capa_1"
   viewBox="0 0 47.96275 47.96275"
   xml:space="preserve"
   sodipodi:docname="temperature.svg"
   inkscape:version="1.2.2 (732a01da63, 2022-12-09)"
   xmlns:inkscape="http://www.inkscape.org/namespaces/inkscape"
   xmlns:sodipodi="http://sodipodi.sourceforge.net/DTD/sodipodi-0.dtd"
   xmlns="http://www.w3.org/2000/svg"
   xmlns:svg="http://www.w3.org/2000/svg"><defs
   id="defs2332" /><sodipodi:namedview
   id="namedview2330"
   pagecolor="#ffffff"
   bordercolor="#000000"
   borderopacity="0.25"
   inkscape:showpageshadow="2"
   inkscape:pageopacity="0.0"
   inkscape:pagecheckerboard="0"
   inkscape:deskcolor="#d1d1d1"
   showgrid="false"
   inkscape:zoom="1.0175"
   inkscape:cx="181.81818"
   inkscape:cy="243.24324"
   inkscape:window-width="1920"
   inkscape:window-height="1001"
   inkscape:window-x="-9"
   inkscape:window-y="-9"
   inkscape:window-maximized="1"
   inkscape:current-layer="Capa_1" />
<g
   id="g2327"
   transform="matrix(0.24324408,0,0,0.25356438,0.23574445,2.0738955)">
	<path
   d="m 188.103,147.322 c -3.583,-2.072 -8.173,-0.849 -10.247,2.739 -4.734,8.189 -13.54,13.275 -22.979,13.275 -9.442,0 -18.249,-5.087 -22.983,-13.275 -1.341,-2.318 -3.816,-3.746 -6.494,-3.746 -2.678,0 -5.153,1.429 -6.493,3.748 -4.73,8.188 -13.535,13.273 -22.976,13.273 -9.439,0 -18.246,-5.088 -22.985,-13.277 -1.341,-2.317 -3.818,-3.744 -6.495,-3.744 -2.678,0 -5.152,1.428 -6.493,3.746 -4.735,8.189 -13.54,13.275 -22.98,13.275 -9.442,0 -18.249,-5.087 -22.984,-13.275 -2.073,-3.587 -6.662,-4.809 -10.247,-2.739 -3.586,2.074 -4.812,6.661 -2.738,10.247 7.407,12.809 21.189,20.768 35.969,20.768 11.168,0 21.767,-4.545 29.476,-12.295 7.711,7.75 18.31,12.295 29.477,12.295 11.168,0 21.765,-4.543 29.471,-12.291 7.709,7.747 18.308,12.291 29.476,12.291 14.777,0 28.559,-7.958 35.966,-20.768 2.072,-3.586 0.845,-8.173 -2.741,-10.247 z"
   id="path2319"
   style="fill:#ff0000" />
	<path
   d="m 131.893,115.35 c -2.073,-3.588 -6.664,-4.813 -10.247,-2.739 -3.586,2.073 -4.813,6.661 -2.739,10.247 7.406,12.81 21.19,20.768 35.97,20.768 14.778,0 28.559,-7.958 35.966,-20.768 2.073,-3.586 0.847,-8.174 -2.739,-10.247 -3.586,-2.073 -8.174,-0.847 -10.247,2.739 -4.734,8.188 -13.539,13.275 -22.979,13.275 -9.444,0.001 -18.25,-5.086 -22.985,-13.275 z"
   id="path2321"
   style="fill:#ff0000" />
	<path
   d="m 36.979,143.626 c 14.777,0 28.559,-7.957 35.967,-20.767 2.074,-3.586 0.848,-8.174 -2.737,-10.247 -3.585,-2.072 -8.174,-0.849 -10.247,2.737 -4.736,8.189 -13.543,13.276 -22.982,13.276 -9.442,0 -18.249,-5.087 -22.984,-13.275 -2.074,-3.587 -6.661,-4.813 -10.247,-2.739 -3.586,2.073 -4.812,6.661 -2.739,10.247 7.406,12.81 21.188,20.768 35.969,20.768 z"
   id="path2323"
   style="fill:#ff0000" />
	<path
   d="m 96.098,155.021 c 10.988,0 19.894,-8.907 19.894,-19.896 0,-8.332 -5.127,-15.458 -12.395,-18.421 v -15.58 h 25.475 c 4.143,0 7.5,-3.357 7.5,-7.5 0,-4.143 -3.357,-7.5 -7.5,-7.5 H 103.597 V 73.357 h 25.475 c 4.143,0 7.5,-3.357 7.5,-7.5 0,-4.143 -3.357,-7.5 -7.5,-7.5 H 103.597 V 45.588 h 25.475 c 4.143,0 7.5,-3.357 7.5,-7.5 0,-4.143 -3.357,-7.5 -7.5,-7.5 h -25.475 v -9.574 c 0,-4.143 -3.357,-7.5 -7.499,-7.5 -4.142,0 -7.5,3.357 -7.5,7.5 v 95.69 c -7.269,2.963 -12.396,10.089 -12.396,18.421 -0.001,10.989 8.908,19.896 19.896,19.896 z"
   id="path2325"
   style="fill:#ff0000" />
</g>
</svg>
