<?xml version="1.0" encoding="UTF-8" standalone="no"?>
<!-- Uploaded to: SVG Find, www.svgrepo.com, Generator: SVG Find Mixer Tools -->

<svg
   fill="#000000"
   width="200"
   height="200"
   version="1.1"
   viewBox="144 144 128 128"
   id="svg4101"
   sodipodi:docname="turbocharger.svg"
   inkscape:version="1.2.2 (732a01da63, 2022-12-09)"
   xmlns:inkscape="http://www.inkscape.org/namespaces/inkscape"
   xmlns:sodipodi="http://sodipodi.sourceforge.net/DTD/sodipodi-0.dtd"
   xmlns="http://www.w3.org/2000/svg"
   xmlns:svg="http://www.w3.org/2000/svg">
  <defs
     id="defs4105" />
  <sodipodi:namedview
     id="namedview4103"
     pagecolor="#ffffff"
     bordercolor="#000000"
     borderopacity="0.25"
     inkscape:showpageshadow="2"
     inkscape:pageopacity="0.0"
     inkscape:pagecheckerboard="0"
     inkscape:deskcolor="#d1d1d1"
     showgrid="false"
     inkscape:zoom="1.0175"
     inkscape:cx="299.7543"
     inkscape:cy="243.24324"
     inkscape:window-width="1920"
     inkscape:window-height="1001"
     inkscape:window-x="-9"
     inkscape:window-y="-9"
     inkscape:window-maximized="1"
     inkscape:current-layer="svg4101" />
  <g
     id="g4099"
     style="fill:#ff0000"
     transform="matrix(0.27500312,0,0,0.25481259,98.067249,106.72027)">
    <path
       d="M 573.18,245.23 C 395.51,77.71 136.91,299.941 279.63,502.33 c -21.746,-4.8086 -43.109,-11.203 -63.922,-19.129 0.58203,-4.8008 -0.90625,-9.6172 -4.0898,-13.254 -3.18355,-3.6368 -7.7656,-5.7422 -12.598,-5.7969 h -10.629 c -4.4141,0 -8.6445,1.7461 -11.773,4.8594 -3.125,3.1133 -4.8945,7.3359 -4.9141,11.75 v 110.84 c 0,4.4258 1.7578,8.668 4.8867,11.797 3.1289,3.1328 7.375,4.8906 11.801,4.8906 h 10.629 c 3.8867,-0.008 7.6523,-1.3711 10.641,-3.8594 2.9883,-2.4844 5.0156,-5.9375 5.7305,-9.7617 129.65,31.488 261.04,28.969 355.5,-70.848 12.617,-13.379 23.227,-28.52 31.488,-44.949 v -0.39453 c 42.273,-72.812 32.199,-172.95 -29.203,-233.25 z M 199.02,592.54 h -10.629 c -0.52344,0 -0.94531,-0.42188 -0.94531,-0.94141 v -110.84 c 0,-0.52344 0.42188,-0.94531 0.94531,-0.94531 h 10.629 c 0.25,0 0.48828,0.10156 0.66797,0.27734 0.17578,0.17578 0.27344,0.41797 0.27344,0.66797 v 110.84 c 0,0.51953 -0.42188,0.94141 -0.94141,0.94141 z m 389.9,-121.23 c -27.789,51.012 -67.621,82.5 -120.99,103.36 -79.664,31.488 -148.07,26.215 -251.91,3.543 v -78.719 c 90.688,34.32 181.05,34.402 256.31,7.2422 l 0.004,-0.004 c 15.086,-4.7227 29.195,-12.137 41.641,-21.883 0.85156,-0.41406 1.6016,-1.0078 2.207,-1.7305 13.852,-11.426 25.211,-25.574 33.375,-41.566 0.66016,-0.89844 1.1406,-1.9141 1.418,-2.9922 42.746,-84.23 -23.617,-189.4 -118.08,-187.75 -152.8,3.543 -180.59,214.51 -34.242,257.49 -32.246,4.1016 -64.914,3.4883 -96.984,-1.8086 -23.223,-29.836 -48.176,-77.461 -47.941,-124.61 0.0664,-47.57 19.016,-93.164 52.688,-126.76 33.672,-33.598 79.309,-52.449 126.88,-52.406 138.79,-0.16016 223.33,148.94 155.63,268.59 z m -155.63,25.898 c -30.543,-0.14453 -59.789,-12.344 -81.387,-33.938 -21.598,-21.598 -33.793,-50.848 -33.938,-81.387 6.375,-152.95 224.35,-152.95 230.65,0 -0.0195,30.578 -12.176,59.898 -33.801,81.523 -21.621,21.621 -50.945,33.777 -81.523,33.801 z"
       id="path4095"
       style="fill:#ff0000" />
    <path
       d="m 504.86,310.34 c -36.289,-38.73 -106.2,-38.73 -142.48,0 l -0.47266,0.47266 c -38.73,36.289 -38.73,106.2 0,142.48 0.15234,0.0469 0.31641,0.0469 0.47266,0 36.289,38.809 106.2,38.809 142.48,0 0.15234,0.0469 0.31641,0.0469 0.47266,0 38.73,-36.289 38.73,-106.2 0,-142.56 -0.39453,-0.23828 -0.47266,-0.31641 -0.47266,-0.39453 z m -5.9023,125.95 -46.684,-46.523 h 65.809 c -1.5039,17.137 -8.1758,33.414 -19.129,46.68 z m -150.67,-46.523 h 66.047 l -46.68,46.602 h -0.004 c -11.02,-13.219 -17.77,-29.469 -19.363,-46.602 z m 19.363,-62.426 46.68,46.68 h -66.043 c 1.6055,-17.152 8.3555,-33.426 19.363,-46.68 z m 73.523,-30.465 c 17.164,1.5742 33.445,8.3281 46.684,19.363 l -46.68,46.602 z m -15.742,65.969 -46.684,-46.605 c 13.238,-11.035 29.52,-17.789 46.684,-19.363 z m 0,38.023 v 66.043 c -17.191,-1.6992 -33.465,-8.5586 -46.684,-19.68 z m 15.742,0 46.684,46.363 c -13.258,11.008 -29.527,17.758 -46.684,19.367 z m 11.098,-26.844 46.684,-46.684 c 10.953,13.266 17.625,29.543 19.129,46.68 z"
       id="path4097"
       style="fill:#ff0000" />
  </g>
</svg>
