<?xml version="1.0" encoding="UTF-8" standalone="no"?>
<svg
   id="Layer_1"
   data-name="Layer 1"
   viewBox="0 0 200 200"
   version="1.1"
   sodipodi:docname="water.svg"
   width="200"
   height="200"
   inkscape:version="1.2.2 (732a01da63, 2022-12-09)"
   xmlns:inkscape="http://www.inkscape.org/namespaces/inkscape"
   xmlns:sodipodi="http://sodipodi.sourceforge.net/DTD/sodipodi-0.dtd"
   xmlns="http://www.w3.org/2000/svg"
   xmlns:svg="http://www.w3.org/2000/svg"
   xmlns:rdf="http://www.w3.org/1999/02/22-rdf-syntax-ns#"
   xmlns:cc="http://creativecommons.org/ns#"
   xmlns:dc="http://purl.org/dc/elements/1.1/">
  <sodipodi:namedview
     id="namedview4365"
     pagecolor="#ffffff"
     bordercolor="#000000"
     borderopacity="0.25"
     inkscape:showpageshadow="2"
     inkscape:pageopacity="0.0"
     inkscape:pagecheckerboard="0"
     inkscape:deskcolor="#d1d1d1"
     showgrid="false"
     inkscape:zoom="6.6683051"
     inkscape:cx="46.188649"
     inkscape:cy="94.101873"
     inkscape:window-width="1920"
     inkscape:window-height="1001"
     inkscape:window-x="-9"
     inkscape:window-y="-9"
     inkscape:window-maximized="1"
     inkscape:current-layer="Layer_1" />
  <defs
     id="defs4358">
    <style
       id="style4356">.cls-1{fill-rule:evenodd;}</style>
  </defs>
  <title
     id="title4360">fan-blades</title>
  <path
     class="cls-1"
     d="m 78.287564,78.251112 c -0.09121,1.130675 -0.215578,2.26135 -0.389699,3.392024 -1.18568,7.827748 -4.800761,12.472212 -6.699508,19.282354 -2.271863,8.24523 5.455788,11.79381 12.047507,11.33284 a 31.200804,32.728684 0 0 0 9.725895,-2.60925 37.311618,39.13874 0 0 0 7.727651,-4.66186 C 117.37356,92.114924 113.96576,74.632953 95.633321,64.665621 a 12.437206,13.046247 0 0 0 -3.432669,-1.21765 18.241235,19.134495 0 0 1 -4.974882,9.62813 v 0 a 18.315859,19.212773 0 0 1 -8.938206,5.175011 z M 74.233035,44.609191 A 14.178415,14.872721 0 1 1 60.054621,59.481912 14.178415,14.872721 0 0 1 74.233035,44.609191 Z m 17.959326,10.967544 c 1.044725,0.04349 2.097742,0.121765 3.142467,0.252228 7.512072,0.86975 12.088962,4.487909 18.655812,6.175223 7.95981,2.043912 11.00278,-6.236106 10.28971,-13.124524 a 30.985226,32.502549 0 0 0 -2.94347,-10.063005 37.601819,39.443153 0 0 0 -4.77589,-7.897328 C 103.55997,13.976603 87.068232,18.325352 78.378771,38.00779 a 11.724139,12.298262 0 0 0 -0.829147,2.557064 18.241235,19.134495 0 0 1 9.618105,5.314171 v 0 a 18.299276,19.195378 0 0 1 4.974883,9.680315 z M 69.888305,40.790989 c 0,-1.3916 0.107789,-2.791897 0.257035,-4.183496 0.829147,-7.888631 4.245233,-12.698347 5.80403,-19.586766 C 77.931031,8.662432 70.020968,5.4965428 63.462415,6.2619226 A 31.0101,32.528642 0 0 0 53.869184,9.3669293 36.963376,38.773445 0 0 0 46.357111,14.394083 C 30.263367,28.06655 34.425685,45.357175 53.1727,54.428666 A 12.130421,12.724439 0 0 0 56.290293,55.42018 18.340733,19.238865 0 0 1 69.888305,40.790989 Z M 56.207378,63.047886 a 43.206853,45.322661 0 0 1 -4.742721,-0.20874 C 43.936002,62.073766 39.30107,58.559977 32.709351,56.98573 24.716373,55.07228 21.806067,63.413181 22.626922,70.284204 a 31.051557,32.572129 0 0 0 3.10101,10.01082 37.361366,39.190925 0 0 0 4.90026,7.827748 C 43.894544,104.79588 60.311656,100.1862 68.694333,80.373302 A 13.208313,13.855114 0 0 0 69.423982,78.059767 18.365607,19.264958 0 0 1 56.207378,63.047886 Z"
     id="path4362"
     style="stroke-width:0.849206;fill:#ff0000" />
  <path
     d="m 137.76483,115.20324 c -2.59783,-1.99418 -5.92575,-0.81711 -7.42949,2.63613 -3.43234,7.88144 -9.81705,12.77642 -16.66069,12.77642 -6.84583,0 -13.23126,-4.89594 -16.663602,-12.77642 -0.97228,-2.23095 -2.766757,-3.60531 -4.708413,-3.60531 -1.941656,0 -3.736128,1.37533 -4.707684,3.60724 -3.42944,7.88047 -9.813418,12.77449 -16.658522,12.77449 -6.843653,0 -13.229082,-4.8969 -16.665046,-12.77834 -0.97228,-2.22999 -2.768202,-3.60339 -4.709136,-3.60339 -1.941656,0 -3.735405,1.37436 -4.707685,3.60531 -3.433065,7.88144 -9.817043,12.77642 -16.66142,12.77642 -6.84583,0 -13.231255,-4.89594 -16.664322,-12.77642 -1.503008,-3.45228 -4.8302173,-4.62839 -7.4294856,-2.63613 -2.5999941,1.99611 -3.48889333,6.41083 -1.9851602,9.86215 5.3703715,12.32793 15.3628758,19.98801 26.0789678,19.98801 8.097246,0 15.781947,-4.3743 21.37128,-11.83323 5.590784,7.45893 13.275486,11.83323 21.372007,11.83323 8.097249,0 15.7805,-4.37238 21.367658,-11.82938 5.589331,7.45604 13.274033,11.82938 21.371283,11.82938 10.71391,0 20.70642,-7.65912 26.07678,-19.98801 1.50229,-3.45132 0.61266,-7.86604 -1.98732,-9.86215 z"
     id="path2319"
     style="fill:#ff0000;stroke-width:0.83535" />
  <metadata
     id="metadata4484">
    <rdf:RDF>
      <cc:Work
         rdf:about="">
        <dc:title>fan-blades</dc:title>
      </cc:Work>
    </rdf:RDF>
  </metadata>
</svg>
